<svg width="14" height="15" fill="none" xmlns="http://www.w3.org/2000/svg"><g clip-path="url(#a)" fill="#fff"><path d="M13.327 4.624c-.031-.709-.146-1.196-.31-1.618-.17-.449-.43-.85-.772-1.183a3.283 3.283 0 0 0-1.18-.77c-.425-.163-.91-.278-1.618-.31-.714-.033-.941-.04-2.752-.04S4.657.71 3.945.74c-.708.031-1.195.146-1.617.31-.449.17-.85.43-1.184.772a3.284 3.284 0 0 0-.768 1.18c-.164.425-.28.91-.31 1.618-.034.714-.042.941-.042 2.752s.008 2.038.039 2.75c.031.708.146 1.195.31 1.618.17.448.433.849.771 1.183.334.338.738.602 1.18.768.426.165.91.28 1.62.31.71.032.937.04 2.748.04 1.811 0 2.038-.008 2.75-.04.708-.03 1.196-.146 1.618-.31a3.412 3.412 0 0 0 1.951-1.951c.165-.425.28-.91.31-1.619.032-.711.04-.938.04-2.749 0-1.81-.003-2.038-.034-2.75Zm-1.201 5.446c-.03.652-.139 1.003-.23 1.238a2.212 2.212 0 0 1-1.266 1.266c-.235.092-.59.201-1.238.23-.704.031-.915.039-2.694.039-1.78 0-1.994-.008-2.695-.04-.651-.028-1.003-.137-1.238-.229A2.051 2.051 0 0 1 2 12.077a2.074 2.074 0 0 1-.498-.766c-.09-.235-.2-.59-.229-1.238-.031-.704-.039-.915-.039-2.695 0-1.78.008-1.993.04-2.694.028-.652.137-1.003.228-1.238.107-.29.277-.552.5-.766a2.07 2.07 0 0 1 .767-.498c.234-.09.589-.2 1.238-.229.703-.031.914-.04 2.694-.04 1.783 0 1.994.009 2.695.04.651.029 1.003.138 1.237.23.29.106.553.275.767.497.221.216.39.477.497.766.091.235.2.589.23 1.238.03.703.039.914.039 2.694 0 1.78-.008 1.989-.04 2.692Z"/><path d="M6.694 3.947a3.428 3.428 0 1 0 .002 6.855 3.428 3.428 0 0 0-.002-6.855Zm0 5.65a2.223 2.223 0 1 1 .001-4.447 2.223 2.223 0 0 1 0 4.446Zm4.363-5.786a.8.8 0 1 1-1.6 0 .8.8 0 0 1 1.6 0Z"/></g><defs><clipPath id="a"><path fill="#fff" transform="translate(0 .702)" d="M0 0h13.339v13.339H0z"/></clipPath></defs></svg>