<svg width="14" height="15" fill="none" xmlns="http://www.w3.org/2000/svg"><g clip-path="url(#a)" fill="#fff"><path d="M13.336 14.041h.003V9.149c0-2.394-.515-4.237-3.313-4.237-1.345 0-2.247.738-2.616 1.438h-.039V5.135H4.718v8.906h2.763v-4.41c0-1.16.22-2.284 1.658-2.284 1.416 0 1.438 1.325 1.438 2.359v4.335h2.759ZM.22 5.136h2.765v8.905H.22V5.136ZM1.602.702C.718.702 0 1.42 0 2.304c0 .884.718 1.617 1.602 1.617.884 0 1.602-.733 1.602-1.617S2.486.702 1.602.702Z"/></g><defs><clipPath id="a"><path fill="#fff" transform="translate(0 .702)" d="M0 0h13.339v13.339H0z"/></clipPath></defs></svg>